<mxfile host="Electron" agent="Mozilla/5.0 (X11; Linux x86_64) AppleWebKit/537.36 (KHTML, like Gecko) draw.io/26.1.1 Chrome/132.0.6834.210 Electron/34.3.3 Safari/537.36" version="26.1.1" pages="2">
  <diagram name="boot" id="DjESVVIIptC1zDyP8yBi">
    <mxGraphModel dx="819" dy="502" grid="0" gridSize="10" guides="1" tooltips="1" connect="1" arrows="1" fold="1" page="1" pageScale="1" pageWidth="850" pageHeight="1100" math="0" shadow="0">
      <root>
        <mxCell id="0" />
        <mxCell id="1" parent="0" />
        <mxCell id="jLBd1UtqGsKdpa_cggNe-1" value="BOOT" style="rounded=0;whiteSpace=wrap;html=1;" vertex="1" parent="1">
          <mxGeometry x="425" y="200" width="125" height="40" as="geometry" />
        </mxCell>
        <mxCell id="jLBd1UtqGsKdpa_cggNe-2" value="FETCH" style="rounded=0;whiteSpace=wrap;html=1;" vertex="1" parent="1">
          <mxGeometry x="425" y="270" width="125" height="40" as="geometry" />
        </mxCell>
        <mxCell id="jLBd1UtqGsKdpa_cggNe-3" value="OP. ASSEMBLY" style="rounded=0;whiteSpace=wrap;html=1;" vertex="1" parent="1">
          <mxGeometry x="425" y="340" width="125" height="40" as="geometry" />
        </mxCell>
        <mxCell id="jLBd1UtqGsKdpa_cggNe-4" value="EXECUTE" style="rounded=0;whiteSpace=wrap;html=1;" vertex="1" parent="1">
          <mxGeometry x="425" y="410" width="125" height="40" as="geometry" />
        </mxCell>
        <mxCell id="jLBd1UtqGsKdpa_cggNe-11" style="edgeStyle=orthogonalEdgeStyle;rounded=0;orthogonalLoop=1;jettySize=auto;html=1;endArrow=none;startFill=0;" edge="1" parent="1" source="jLBd1UtqGsKdpa_cggNe-5">
          <mxGeometry relative="1" as="geometry">
            <mxPoint x="350" y="500" as="targetPoint" />
          </mxGeometry>
        </mxCell>
        <mxCell id="jLBd1UtqGsKdpa_cggNe-12" value="no" style="edgeLabel;html=1;align=center;verticalAlign=middle;resizable=0;points=[];" vertex="1" connectable="0" parent="jLBd1UtqGsKdpa_cggNe-11">
          <mxGeometry x="0.1331" y="2" relative="1" as="geometry">
            <mxPoint y="8" as="offset" />
          </mxGeometry>
        </mxCell>
        <mxCell id="jLBd1UtqGsKdpa_cggNe-5" value="INT?" style="rhombus;whiteSpace=wrap;html=1;" vertex="1" parent="1">
          <mxGeometry x="425" y="480" width="125" height="40" as="geometry" />
        </mxCell>
        <mxCell id="jLBd1UtqGsKdpa_cggNe-6" value="INTERRUPT" style="rounded=0;whiteSpace=wrap;html=1;" vertex="1" parent="1">
          <mxGeometry x="425" y="550" width="125" height="40" as="geometry" />
        </mxCell>
        <mxCell id="jLBd1UtqGsKdpa_cggNe-7" value="" style="endArrow=classic;html=1;rounded=0;exitX=0.5;exitY=1;exitDx=0;exitDy=0;entryX=0.5;entryY=0;entryDx=0;entryDy=0;" edge="1" parent="1" source="jLBd1UtqGsKdpa_cggNe-5" target="jLBd1UtqGsKdpa_cggNe-6">
          <mxGeometry width="50" height="50" relative="1" as="geometry">
            <mxPoint x="540" y="540" as="sourcePoint" />
            <mxPoint x="590" y="490" as="targetPoint" />
          </mxGeometry>
        </mxCell>
        <mxCell id="jLBd1UtqGsKdpa_cggNe-8" value="yes" style="edgeLabel;html=1;align=center;verticalAlign=middle;resizable=0;points=[];" vertex="1" connectable="0" parent="jLBd1UtqGsKdpa_cggNe-7">
          <mxGeometry x="-0.0413" y="2" relative="1" as="geometry">
            <mxPoint x="11" y="-4" as="offset" />
          </mxGeometry>
        </mxCell>
        <mxCell id="jLBd1UtqGsKdpa_cggNe-9" value="" style="endArrow=classic;html=1;rounded=0;exitX=0;exitY=0.5;exitDx=0;exitDy=0;entryX=0;entryY=0.5;entryDx=0;entryDy=0;" edge="1" parent="1" source="jLBd1UtqGsKdpa_cggNe-6" target="jLBd1UtqGsKdpa_cggNe-2">
          <mxGeometry width="50" height="50" relative="1" as="geometry">
            <mxPoint x="540" y="540" as="sourcePoint" />
            <mxPoint x="350" y="290" as="targetPoint" />
            <Array as="points">
              <mxPoint x="350" y="570" />
              <mxPoint x="350" y="290" />
            </Array>
          </mxGeometry>
        </mxCell>
        <mxCell id="jLBd1UtqGsKdpa_cggNe-13" value="" style="endArrow=classic;html=1;rounded=0;exitX=0.5;exitY=1;exitDx=0;exitDy=0;entryX=0.5;entryY=0;entryDx=0;entryDy=0;" edge="1" parent="1" source="jLBd1UtqGsKdpa_cggNe-2" target="jLBd1UtqGsKdpa_cggNe-3">
          <mxGeometry width="50" height="50" relative="1" as="geometry">
            <mxPoint x="540" y="400" as="sourcePoint" />
            <mxPoint x="590" y="350" as="targetPoint" />
          </mxGeometry>
        </mxCell>
        <mxCell id="jLBd1UtqGsKdpa_cggNe-14" value="" style="endArrow=classic;html=1;rounded=0;exitX=0.5;exitY=1;exitDx=0;exitDy=0;entryX=0.5;entryY=0;entryDx=0;entryDy=0;" edge="1" parent="1">
          <mxGeometry width="50" height="50" relative="1" as="geometry">
            <mxPoint x="487.26" y="380" as="sourcePoint" />
            <mxPoint x="487.26" y="410" as="targetPoint" />
          </mxGeometry>
        </mxCell>
        <mxCell id="jLBd1UtqGsKdpa_cggNe-15" value="" style="endArrow=classic;html=1;rounded=0;exitX=0.5;exitY=1;exitDx=0;exitDy=0;entryX=0.5;entryY=0;entryDx=0;entryDy=0;" edge="1" parent="1">
          <mxGeometry width="50" height="50" relative="1" as="geometry">
            <mxPoint x="487.26" y="450" as="sourcePoint" />
            <mxPoint x="487.26" y="480" as="targetPoint" />
          </mxGeometry>
        </mxCell>
        <mxCell id="jLBd1UtqGsKdpa_cggNe-16" value="" style="endArrow=classic;html=1;rounded=0;exitX=0.5;exitY=1;exitDx=0;exitDy=0;entryX=0.5;entryY=0;entryDx=0;entryDy=0;" edge="1" parent="1">
          <mxGeometry width="50" height="50" relative="1" as="geometry">
            <mxPoint x="487.26" y="240" as="sourcePoint" />
            <mxPoint x="487.26" y="270" as="targetPoint" />
          </mxGeometry>
        </mxCell>
      </root>
    </mxGraphModel>
  </diagram>
  <diagram id="LzmD64aL4FqQ9-HuzBe5" name="PIC">
    <mxGraphModel dx="276" dy="169" grid="0" gridSize="10" guides="1" tooltips="1" connect="1" arrows="1" fold="1" page="1" pageScale="1" pageWidth="850" pageHeight="1100" math="0" shadow="0">
      <root>
        <mxCell id="0" />
        <mxCell id="1" parent="0" />
        <mxCell id="6F4XgYjEaqBbli-3qCXY-3" value="&lt;h2&gt;PIC&lt;/h2&gt;" style="rounded=1;whiteSpace=wrap;html=1;rotation=-90;portConstraintRotation=0;container=0;dropTarget=0;textDirection=vertical-rl;" vertex="1" parent="1">
          <mxGeometry x="270" y="310" width="120" height="60" as="geometry" />
        </mxCell>
        <mxCell id="6F4XgYjEaqBbli-3qCXY-4" value="" style="endArrow=classic;html=1;rounded=0;" edge="1" parent="1">
          <mxGeometry width="50" height="50" relative="1" as="geometry">
            <mxPoint x="260" y="300" as="sourcePoint" />
            <mxPoint x="300" y="300" as="targetPoint" />
          </mxGeometry>
        </mxCell>
        <mxCell id="6F4XgYjEaqBbli-3qCXY-5" value="" style="endArrow=classic;html=1;rounded=0;" edge="1" parent="1">
          <mxGeometry width="50" height="50" relative="1" as="geometry">
            <mxPoint x="260" y="381" as="sourcePoint" />
            <mxPoint x="300" y="381" as="targetPoint" />
          </mxGeometry>
        </mxCell>
        <mxCell id="6F4XgYjEaqBbli-3qCXY-6" value="" style="endArrow=none;dashed=1;html=1;rounded=0;" edge="1" parent="1">
          <mxGeometry width="50" height="50" relative="1" as="geometry">
            <mxPoint x="280" y="370" as="sourcePoint" />
            <mxPoint x="280" y="310" as="targetPoint" />
          </mxGeometry>
        </mxCell>
        <mxCell id="6F4XgYjEaqBbli-3qCXY-7" value="" style="endArrow=classic;html=1;rounded=0;exitX=0.5;exitY=1;exitDx=0;exitDy=0;curved=0;shape=flexArrow;endSize=3.7307692307692304;startSize=6;endWidth=6.9230769230769225;" edge="1" parent="1" source="6F4XgYjEaqBbli-3qCXY-3">
          <mxGeometry width="50" height="50" relative="1" as="geometry">
            <mxPoint x="300" y="350" as="sourcePoint" />
            <mxPoint x="400" y="340" as="targetPoint" />
          </mxGeometry>
        </mxCell>
        <mxCell id="6F4XgYjEaqBbli-3qCXY-8" value="INT" style="text;html=1;align=center;verticalAlign=middle;resizable=0;points=[];autosize=1;strokeColor=none;fillColor=none;" vertex="1" parent="1">
          <mxGeometry x="210" y="320" width="40" height="30" as="geometry" />
        </mxCell>
        <mxCell id="6F4XgYjEaqBbli-3qCXY-10" value="ISR&lt;br&gt;Position" style="text;html=1;align=center;verticalAlign=middle;resizable=0;points=[];autosize=1;strokeColor=none;fillColor=none;" vertex="1" parent="1">
          <mxGeometry x="390" y="320" width="70" height="40" as="geometry" />
        </mxCell>
      </root>
    </mxGraphModel>
  </diagram>
</mxfile>
